<svg width="572" height="292" viewBox="0 0 572 292" fill="none" xmlns="http://www.w3.org/2000/svg">
<path d="M238 191.8C232.56 191.8 228.4 190.307 225.52 187.32C222.64 184.28 221.2 180.173 221.2 175V132.6H228.4V175C228.4 178.2 229.173 180.733 230.72 182.6C232.32 184.467 234.747 185.4 238 185.4C241.2 185.4 243.6 184.467 245.2 182.6C246.8 180.733 247.6 178.2 247.6 175V132.6H254.8V175C254.8 180.227 253.36 184.333 250.48 187.32C247.653 190.307 243.493 191.8 238 191.8ZM265.969 191L281.169 132.6H290.849L305.969 191H298.689L294.849 175.48H277.169L273.329 191H265.969ZM278.609 169.4H293.329L288.849 151.4C287.995 147.987 287.329 145.133 286.849 142.84C286.369 140.547 286.075 139.053 285.969 138.36C285.862 139.053 285.569 140.547 285.089 142.84C284.609 145.133 283.942 147.96 283.089 151.32L278.609 169.4ZM317.138 191V132.6H326.738L344.578 182.6C344.471 181.267 344.338 179.64 344.178 177.72C344.071 175.747 343.964 173.693 343.858 171.56C343.804 169.373 343.778 167.32 343.778 165.4V132.6H350.738V191H341.138L323.378 141C323.484 142.28 323.591 143.907 323.698 145.88C323.804 147.8 323.884 149.853 323.938 152.04C324.044 154.173 324.098 156.227 324.098 158.2V191H317.138ZM378.306 191V139.08H362.306V132.52H401.506V139.08H385.506V191H378.306ZM429.875 191.8C424.435 191.8 420.275 190.307 417.395 187.32C414.515 184.28 413.075 180.173 413.075 175V132.6H420.275V175C420.275 178.2 421.048 180.733 422.595 182.6C424.195 184.467 426.622 185.4 429.875 185.4C433.075 185.4 435.475 184.467 437.075 182.6C438.675 180.733 439.475 178.2 439.475 175V132.6H446.675V175C446.675 180.227 445.235 184.333 442.355 187.32C439.528 190.307 435.368 191.8 429.875 191.8ZM459.924 191V132.6H469.364L475.444 151.48C476.03 153.187 476.564 154.893 477.044 156.6C477.524 158.253 477.87 159.533 478.084 160.44C478.35 159.533 478.697 158.253 479.124 156.6C479.55 154.893 480.03 153.16 480.564 151.4L486.324 132.6H495.764V191H488.724V169.8C488.724 167.453 488.804 164.787 488.964 161.8C489.124 158.813 489.337 155.773 489.604 152.68C489.87 149.533 490.137 146.547 490.404 143.72C490.724 140.84 490.99 138.333 491.204 136.2L481.764 165.4H474.164L464.644 136.2C464.91 138.28 465.177 140.707 465.444 143.48C465.71 146.2 465.95 149.107 466.164 152.2C466.377 155.24 466.564 158.28 466.724 161.32C466.884 164.36 466.964 167.187 466.964 169.8V191H459.924Z" fill="black"/>
<path d="M30.4609 30.7538C49.9646 11.0625 76.4174 4.11643e-05 104 1.1471e-10C131.582 -4.11641e-05 158.035 11.0623 177.539 30.7536C197.043 50.4448 208 77.1519 208 105C208 132.847 197.043 159.554 177.54 179.246L104 105L30.4609 30.7538Z" fill="url(#paint0_linear_0_1)"/>
<path d="M176.779 202.353C157.359 221.935 131.019 232.936 103.555 232.936C76.0904 232.936 49.7508 221.935 30.3305 202.353C10.9102 182.771 1.28225e-06 156.212 0 128.519C-1.28225e-06 100.826 10.9102 74.2677 30.3305 54.6858L103.555 128.519L176.779 202.353Z" fill="url(#paint1_linear_0_1)"/>
<path d="M229.536 254.628L160.909 186L160.744 186.167L156 190.991L224.628 259.618L229.536 254.628Z" fill="#7C0097"/>
<rect width="97.0541" height="7" transform="matrix(0.69516 0.718855 -0.71307 0.701093 166.35 157.998)" fill="#7C0097"/>
<path d="M337.76 273V214.6H350L366.24 261.8C366.08 260.093 365.893 258.093 365.68 255.8C365.52 253.453 365.387 251.08 365.28 248.68C365.173 246.227 365.12 244.093 365.12 242.28V214.6H374.24V273H362L345.92 225.8C346.027 227.347 346.16 229.213 346.32 231.4C346.48 233.587 346.613 235.827 346.72 238.12C346.827 240.413 346.88 242.52 346.88 244.44V273H337.76ZM387.169 273V264.2H398.929V223.4H387.169V214.6H420.769V223.4H409.009V264.2H420.769V273H387.169ZM433.698 273V214.6H445.938L462.178 261.8C462.018 260.093 461.831 258.093 461.618 255.8C461.458 253.453 461.324 251.08 461.218 248.68C461.111 246.227 461.058 244.093 461.058 242.28V214.6H470.177V273H457.938L441.858 225.8C441.964 227.347 442.098 229.213 442.258 231.4C442.418 233.587 442.551 235.827 442.658 238.12C442.764 240.413 442.818 242.52 442.818 244.44V273H433.698ZM497.506 273.88C491.586 273.88 486.893 272.253 483.426 269C480.013 265.693 478.306 261.267 478.306 255.72H488.306C488.306 258.653 489.133 260.947 490.786 262.6C492.44 264.253 494.68 265.08 497.506 265.08C500.333 265.08 502.573 264.28 504.226 262.68C505.88 261.027 506.706 258.733 506.706 255.8V223.88H493.106V214.6H516.706V255.8C516.706 261.4 514.973 265.827 511.506 269.08C508.093 272.28 503.426 273.88 497.506 273.88ZM526.675 273L541.395 214.6H554.275L569.075 273H558.835L555.635 258.84H540.115L536.915 273H526.675ZM541.955 250.68H553.795L550.275 235C549.688 232.387 549.182 230.04 548.755 227.96C548.328 225.827 548.035 224.28 547.875 223.32C547.715 224.28 547.422 225.827 546.995 227.96C546.622 230.04 546.115 232.36 545.475 234.92L541.955 250.68Z" fill="black"/>
<path d="M332 287.4H571.875V291.4H332V287.4Z" fill="black"/>
<defs>
<linearGradient id="paint0_linear_0_1" x1="194.133" y1="18.6667" x2="82.1164" y2="131.928" gradientUnits="userSpaceOnUse">
<stop offset="0.288576" stop-color="#FF0000"/>
<stop offset="0.754927" stop-color="#7C0097"/>
</linearGradient>
<linearGradient id="paint1_linear_0_1" x1="13.8073" y1="216.693" x2="111.259" y2="120.045" gradientUnits="userSpaceOnUse">
<stop offset="0.23569" stop-color="#2200FF"/>
<stop offset="0.889533" stop-color="#7C0097"/>
</linearGradient>
</defs>
</svg>
